<?xml version="1.0" encoding="UTF-8" standalone="no"?>
<!-- Created with Inkscape (http://www.inkscape.org/) -->

<svg
   xmlns:dc="http://purl.org/dc/elements/1.1/"
   xmlns:cc="http://creativecommons.org/ns#"
   xmlns:rdf="http://www.w3.org/1999/02/22-rdf-syntax-ns#"
   xmlns:svg="http://www.w3.org/2000/svg"
   xmlns="http://www.w3.org/2000/svg"
   xmlns:sodipodi="http://sodipodi.sourceforge.net/DTD/sodipodi-0.dtd"
   xmlns:inkscape="http://www.inkscape.org/namespaces/inkscape"
   width="210mm"
   height="297mm"
   id="svg2"
   version="1.1"
   inkscape:version="0.48.2 r9819"
   sodipodi:docname="All You Can Eat Logo.svg">
  <defs
     id="defs4" />
  <sodipodi:namedview
     id="base"
     pagecolor="#ffffff"
     bordercolor="#666666"
     borderopacity="1.0"
     inkscape:pageopacity="0.0"
     inkscape:pageshadow="2"
     inkscape:zoom="0.49497475"
     inkscape:cx="308.48446"
     inkscape:cy="656.07889"
     inkscape:document-units="px"
     inkscape:current-layer="layer1"
     showgrid="false"
     inkscape:window-width="1280"
     inkscape:window-height="670"
     inkscape:window-x="-8"
     inkscape:window-y="-8"
     inkscape:window-maximized="1" />
  <metadata
     id="metadata7">
    <rdf:RDF>
      <cc:Work
         rdf:about="">
        <dc:format>image/svg+xml</dc:format>
        <dc:type
           rdf:resource="http://purl.org/dc/dcmitype/StillImage" />
        <dc:title></dc:title>
      </cc:Work>
    </rdf:RDF>
  </metadata>
  <g
     inkscape:label="Ebene 1"
     inkscape:groupmode="layer"
     id="layer1">
    <path
       style="fill:#000000"
       d="m 69.177596,453.30509 0,-84.85281 16.16244,0 16.162434,0 0,-76.53959 c 0,-84.59672 0.62101,-89.68646 12.73598,-104.38403 16.2998,-19.77448 44.75836,-16.86076 58.91338,6.03185 l 6.13239,9.91778 0.54167,153.74265 0.54167,153.74265 -10.13812,9.98568 -10.13812,9.98568 0,-69.1195 0,-69.11951 -20.20305,0 -20.20305,0 0,59.52146 0,59.52144 -9.09137,9.35434 -9.09138,9.35433 0,-68.87577 0,-68.8758 -7.071064,0 -7.07107,0 0,72.73098 0,72.73099 -9.09137,0 -9.09137,0 0,-84.85282 z M 160.09132,292.55802 c 0,-52.25451 -0.70793,-77.26879 -2.27277,-80.30713 -10.43433,-20.25957 -29.58354,-16.93384 -36.02412,6.25648 -1.25272,4.51061 -2.09118,35.97535 -2.09794,78.72915 l -0.0113,71.21576 20.20305,0 20.20305,0 0,-75.89426 z"
       id="path2996"
       inkscape:connector-curvature="0" />
    <path
       style="fill:#000000"
       d="m 297.48648,534.9396 c -10.07522,-4.36919 -16.02153,-10.47061 -21.47526,-22.03551 l -4.76365,-10.10152 -0.0197,-160.69869 -0.0197,-160.69869 9.09138,-8.9225 9.09137,-8.92251 0.008,165.58058 c 0.007,160.43489 0.12962,165.78078 3.93552,172.02259 4.53775,7.4421 13.63001,10.70204 29.89704,10.71932 5.83363,0.006 10.6066,0.41713 10.6066,0.91317 0,0.49607 -3.22553,6.40546 -7.16785,13.13199 -6.74624,11.51071 -7.60778,12.22543 -14.64721,12.151 -4.11365,-0.0434 -10.65485,-1.45615 -14.53601,-3.13923 z"
       id="path2998"
       inkscape:connector-curvature="0" />
    <path
       style="fill:#000000"
       d="M 231.43887,533.91146 C 223.56434,531.633 213.96388,522.314 207.99554,511.15541 l -4.46766,-8.35285 -0.55248,-160.48947 -0.55249,-160.48948 8.63371,-8.79819 8.6337,-8.79818 1.01016,165.59037 1.01015,165.59037 4.90074,5.21558 c 5.8399,6.21511 15.54389,9.22344 29.80153,9.2388 l 10.45861,0.0121 -7.29895,13.13198 c -6.91765,12.44597 -7.6751,13.12247 -14.49922,12.94977 -3.96015,-0.1002 -10.09566,-1.01997 -13.63447,-2.04392 l 0,-8.5e-4 z"
       id="path3000"
       inkscape:connector-curvature="0" />
    <path
       style="fill:#000000"
       d="m 398.48732,452.12308 0,-96.13634 -14.14213,-30.38495 -14.14214,-30.38495 0,-53.87537 0,-53.87538 9.09137,-8.9225 9.09138,-8.9225 0,58.03603 0,58.03605 10.35304,20.63084 10.35304,20.63084 9.74738,-19.15232 9.74739,-19.15232 0.10262,-49.57342 0.10263,-49.57342 10.10152,-9.94963 10.10153,-9.94962 0,61.05571 0,61.05572 -15.15229,32.42215 -15.15229,32.42216 0,95.84978 0,95.84978 -10.10152,0 -10.10153,0 0,-96.13634 z"
       id="path3002"
       inkscape:connector-curvature="0" />
    <path
       style="fill:#000000"
       d="m 490.4112,547.32689 c -3.3335,-1.73806 -9.04369,-6.51435 -12.6893,-10.61395 -12.83549,-14.43391 -12.72926,-12.92989 -12.11202,-171.48395 l 0.55766,-143.24884 5.30969,-10.08834 c 9.41927,-17.89649 26.22869,-26.67098 43.02035,-22.45654 7.26067,1.82231 18.80856,12.52254 24.01489,22.25208 l 4.42667,8.2725 0,148.49242 0,148.49243 -5.05077,9.99833 c -7.16357,14.18078 -17.45821,21.79313 -30.78977,22.76742 -7.0397,0.51445 -12.67223,-0.29006 -16.6874,-2.38356 l 0,0 z m 23.34542,-25.39131 c 10.08573,-5.39773 9.98962,-3.93042 9.98962,-152.50564 0,-144.22224 0.10749,-142.34118 -8.68585,-151.99547 -9.00292,-9.88439 -25.0914,-2.43201 -29.73974,13.7758 -2.7475,9.57997 -2.63534,267.13309 0.12065,277.05623 3.58462,12.9067 17.33593,19.54506 28.31532,13.66908 l 0,0 z"
       id="path3004"
       inkscape:connector-curvature="0" />
    <path
       style="fill:#000000"
       d="m 657.08637,479.56906 0,-72.73098 -7.07107,0 -7.07107,0 0,52.48704 c 0,43.95533 -0.54212,53.8894 -3.33513,61.11423 -12.24513,31.67515 -43.65482,39.94505 -62.92459,16.56747 -12.93515,-15.69258 -12.53217,-9.75496 -12.53217,-184.65623 l 0,-158.82356 9.09137,-8.92251 9.09137,-8.92251 0,164.13025 c 0,176.57397 -0.17296,173.54709 10.33765,180.90902 5.34487,3.74369 14.33654,4.28748 20.07883,1.21431 10.16712,-5.44129 9.98962,-2.40057 9.98962,-171.13659 l 0,-157.255 10.10153,-9.94963 10.10152,-9.94963 0,104.47484 0,104.47484 16.16245,0 16.16244,0 0,84.85281 0,84.85282 -9.09138,0 -9.09137,0 0,-72.73099 z"
       id="path3006"
       inkscape:connector-curvature="0" />
    <path
       style="fill:#000000"
       d="m 602.04507,754.0035 -0.5171,-162.30751 -21.5892,-0.57212 -21.5892,-0.57211 7.4471,-12.03255 7.447,-12.03254 47.1369,-0.0222 47.1369,-0.0222 -4.5877,7.57614 c -10.8548,17.92592 -8.947,16.66752 -25.2687,16.66752 l -14.9199,0 0,154.36521 0,154.36521 -10.0895,8.44738 -10.0894,8.44738 -0.5172,-162.30752 0,0 z"
       id="path3008"
       inkscape:connector-curvature="0" />
    <path
       style="fill:#000000"
       d="m 628.8021,767.46252 0,-13.13198 25.70053,0 25.70053,0 -13.01526,13.13198 -13.01526,13.13199 -12.68527,0 -12.68527,0 0,-13.13199 z"
       id="path3010"
       inkscape:connector-curvature="0" />
    <path
       style="fill:#000000"
       d="m 471.6876,755.23601 0.5408,-161.63034 5.1612,-10.02773 c 7.1124,-13.8188 18.2177,-21.37758 31.5596,-21.48092 12.1216,-0.0939 20.0197,3.58644 28.5525,13.30484 11.7067,13.33313 12.5085,19.96985 12.5085,103.53393 l 0,75.39475 24.2437,0 24.2436,0 0,13.13198 0,13.13199 -24.2436,0 -24.2437,0 0,59.08495 0,59.08493 -9.5965,8.44462 -9.5964,8.44459 -0.532,-67.52955 -0.5319,-67.52954 -20.1762,0 -20.1762,0 0,59.17835 0,59.17835 -9.1271,8.95757 -9.1271,8.95757 0.5408,-161.63034 z m 58.0752,-74.14153 c -0.041,-67.48734 -0.3446,-73.89725 -3.8689,-81.65935 -4.1035,-9.03784 -9.0589,-12.78991 -16.8916,-12.78991 -5.4297,0 -15.0493,8.52386 -17.8185,15.78888 -0.9805,2.57247 -1.7828,37.80154 -1.7828,78.28683 l 0,73.60961 20.2031,0 20.203,0 -0.044,-73.23606 0,0 z"
       id="path3012"
       inkscape:connector-curvature="0" />
    <path
       style="fill:#000000"
       d="m 394.4467,738.1681 0,-175.76654 36.53384,0 c 20.0936,0 36.2308,0.69117 35.8604,1.53593 -0.3704,0.84477 -3.318,6.29959 -6.5503,12.12183 l -5.8769,10.5859 -19.882,0 -19.88199,0 0,62.62946 0,62.62945 27.15279,0 27.1529,0 -7.4549,13.11328 -7.4548,13.11329 -19.698,0.0187 -19.69799,0.0187 0,75.76144 0,75.76144 26.26399,0 c 14.4452,0 26.264,0.49825 26.264,1.10721 0,0.60896 -3.1707,6.06378 -7.046,12.12183 l -7.046,11.01462 -29.3195,0 -29.31954,0 0,-175.76654 z"
       id="path3014"
       inkscape:connector-curvature="0" />
    <path
       style="fill:#000000"
       d="m 263.12688,739.49331 0,-175.28261 10.31277,0.61065 10.31277,0.61066 18.47658,39.13629 18.4766,39.1363 1.0101,-45.19721 1.0102,-45.19721 9.0913,-14.66493 9.0914,-14.66493 0.5633,186.39086 0.5634,186.39086 -9.6547,8.47298 -9.6547,8.47296 -1.0102,-110.49836 -1.0101,-110.49839 -8.8307,-18.18275 C 307.018,664.52797 298.3812,646.7998 292.682,635.13254 l -10.36222,-21.21321 -0.5186,141.51906 -0.5186,141.51906 -9.07785,8.90924 -9.07785,8.90924 0,-175.28262 z"
       id="path3016"
       inkscape:connector-curvature="0" />
    <path
       style="fill:#000000"
       d="m 164.13194,848.69538 0,-68.10086 -31.31473,0 -31.31473,0 0,-13.13199 0,-13.13198 31.31473,0 31.31473,0 0,-76.70099 c 0,-64.97024 0.49399,-78.15601 3.22996,-86.21461 6.52065,-19.20615 18.32293,-29.2078 34.57032,-29.29608 12.38804,-0.0673 18.32096,2.28978 26.29646,10.4473 14.49607,14.82694 13.62344,4.16581 14.23893,173.95921 l 0.55392,152.80909 -10.15037,8.49838 -10.15037,8.49837 0,-67.86835 0,-67.86835 -20.20306,0 -20.20305,0 0,59.17835 0,59.17835 -9.09137,8.92252 -9.09137,8.92251 0,-68.10087 z m 57.57869,-170.28542 0,-76.93073 -5.65865,-7.417 c -7.26803,-9.52647 -16.22447,-10.22042 -24.02109,-1.86116 -9.7137,10.41468 -9.71621,10.43746 -9.71621,88.17054 l 0,73.78897 15.65737,0.72196 c 8.61155,0.39707 17.47564,0.6626 19.69797,0.59006 3.96756,-0.1295 4.04061,-1.52273 4.04061,-77.06264 l 0,0 z"
       id="path3018"
       inkscape:connector-curvature="0" />
    <path
       style="fill:#000000"
       d="m 96.451711,919.25454 c -8.18092,-3.81089 -18.20149,-14.6756 -22.60827,-24.51279 -3.13153,-6.99046 -3.71024,-15.51204 -4.28755,-63.13453 -0.36823,-30.37493 -1.47449,-55.05332 -2.46788,-55.05332 -0.99026,0 -5.50477,-5.45482 -10.03225,-12.12183 l -8.23178,-12.12183 10.06533,0 10.06532,0 0.61656,-76.26652 0.61655,-76.26651 5.37666,-11.46952 c 3.85408,-8.22154 7.81435,-13.08453 13.98482,-17.17259 8.08402,-5.35582 10.12469,-5.74387 33.514219,-6.37293 l 24.90605,-0.66984 0,26.17684 0,26.17685 -8.5863,7.314 -8.5863,7.314 -1.01015,-20.69917 -1.01015,-20.69917 -12.98002,0.21591 c -12.22348,0.20334 -13.37157,0.64318 -19.697969,7.54648 l -6.71796,7.33056 0,138.35027 0,138.35027 6.2702,7.14136 c 4.910229,5.59244 7.787299,7.14137 13.264799,7.14137 13.38361,0 16.93332,-5.0826 19.85481,-28.4289 0.96875,-7.74147 2.81615,-10.8472 11.41665,-19.1929 l 10.26089,-9.95689 -0.97761,23.85235 c -0.87109,21.25348 -1.61423,25.09715 -6.82043,35.27707 -9.98993,19.53376 -30.48415,29.27196 -46.198239,21.95191 z"
       id="path3020"
       inkscape:connector-curvature="0" />
  </g>
</svg>
